<?xml version="1.0" encoding="utf-8"?>
<!-- Generator: Adobe Illustrator 19.2.1, SVG Export Plug-In . SVG Version: 6.00 Build 0)  -->
<svg version="1.2" baseProfile="tiny" id="Layer_1" xmlns="http://www.w3.org/2000/svg" xmlns:xlink="http://www.w3.org/1999/xlink"
	 x="0px" y="0px" viewBox="0 0 24.009 24.009" xml:space="preserve">
<g>
	<path fill="none" stroke="#ffffff" stroke-width="0.8" stroke-miterlimit="10" d="M10.984,22.993c0,0,0.002,1.003,1.001,1.003l0.047,0.007c0.999,0,0.99-1.007,0.99-1.007c1.021,0,0.983-1.003,0.983-1.003
		v-2l1-1h-6l1,1v2C10.005,21.993,9.963,22.993,10.984,22.993z"/>
	<path fill="none" stroke="#ffffff" stroke-width="0.8" stroke-miterlimit="10" d="M16.404,13.576c0.015-0.175,0.033-0.484,0.05-0.804c-1.034,0.108-2.826,0.205-4.449,0.205
		c-1.579,0-3.387-0.108-4.449-0.229c0.016,0.309,0.032,0.606,0.043,0.777c0.002,0.006,0.002,0.017,0.004,0.024
		c0.186,1.852,0.733,3.363,1.231,4.435l6.344,0.001C15.682,16.92,16.245,15.419,16.404,13.576z"/>
	<path fill="none" stroke="#ffffff" stroke-width="0.8" stroke-miterlimit="10" d="M14.557,2.965c-0.851-1.88-1.782-2.959-2.553-2.959c-0.77,0-1.7,1.079-2.553,2.959C8.587,4.874,7.918,7.371,7.618,9.817
		c-0.074,0.598-0.113,1.189-0.116,1.802c0,0,0.002,0.049,0.006,0.116c0.915,0.114,2.768,0.242,4.497,0.242
		c1.636,0,3.557-0.108,4.498-0.216c0.003-0.066,0.005-0.114,0.005-0.114c-0.003-0.614-0.044-1.23-0.116-1.83
		C16.092,7.371,15.424,4.874,14.557,2.965z"/>
</g>
</svg>
